<svg width="512" height="512" viewBox="0 0 512 512" fill="none" xmlns="http://www.w3.org/2000/svg">
<rect width="512" height="512" fill="#2563EB"/>
<path d="M256.5 189.708C256.511 185.892 255.759 182.112 254.288 178.59C252.817 175.069 250.657 171.877 247.934 169.203C245.212 166.528 241.982 164.426 238.434 163.018C234.887 161.61 231.094 160.926 227.279 161.005C223.463 161.085 219.702 161.926 216.216 163.481C212.731 165.035 209.591 167.271 206.983 170.056C204.374 172.842 202.348 176.121 201.025 179.701C199.702 183.28 199.108 187.088 199.279 190.901C193.67 192.343 188.463 195.043 184.052 198.795C179.641 202.547 176.142 207.254 173.82 212.559C171.498 217.864 170.413 223.628 170.648 229.414C170.883 235.2 172.431 240.857 175.176 245.957C170.35 249.877 166.555 254.918 164.121 260.64C161.687 266.363 160.688 272.593 161.211 278.789C161.734 284.986 163.763 290.96 167.121 296.194C170.48 301.427 175.066 305.76 180.482 308.817C179.813 313.991 180.212 319.247 181.654 324.26C183.096 329.274 185.551 333.939 188.867 337.966C192.182 341.994 196.288 345.299 200.931 347.678C205.574 350.057 210.656 351.458 215.862 351.796C221.068 352.134 226.288 351.401 231.199 349.642C236.111 347.883 240.61 345.137 244.418 341.571C248.226 338.006 251.263 333.698 253.341 328.912C255.419 324.127 256.494 318.967 256.5 313.75V189.708Z" stroke="white" stroke-width="4" stroke-linecap="round" stroke-linejoin="round"/>
<path d="M227.875 266.042C235.886 263.224 242.881 258.093 247.976 251.3C253.071 244.506 256.038 236.354 256.5 227.875" stroke="white" stroke-width="4" stroke-linecap="round" stroke-linejoin="round"/>
<path d="M199.279 190.901C199.467 195.517 200.77 200.018 203.076 204.021" stroke="white" stroke-width="4" stroke-linecap="round" stroke-linejoin="round"/>
<path d="M175.176 245.966C176.922 244.544 178.79 243.28 180.758 242.188" stroke="white" stroke-width="2" stroke-linecap="round" stroke-linejoin="round"/>
<path d="M199.25 313.75C192.674 313.753 186.209 312.057 180.482 308.826" stroke="white" stroke-width="4" stroke-linecap="round" stroke-linejoin="round"/>
<path d="M256.5 266.042H294.667" stroke="white" stroke-width="4" stroke-linecap="round" stroke-linejoin="round"/>
<path d="M256.5 313.75H313.75C318.811 313.75 323.665 315.761 327.244 319.339C330.823 322.918 332.833 327.772 332.833 332.833V342.375" stroke="white" stroke-width="4" stroke-linecap="round" stroke-linejoin="round"/>
<path d="M256.5 218.333H332.833" stroke="white" stroke-width="4" stroke-linecap="round" stroke-linejoin="round"/>
<path d="M294.667 218.333V189.708C294.667 184.647 296.677 179.793 300.256 176.214C303.835 172.636 308.689 170.625 313.75 170.625" stroke="white" stroke-width="4" stroke-linecap="round" stroke-linejoin="round"/>
<path d="M294.667 270.813C297.302 270.813 299.437 268.677 299.437 266.042C299.437 263.407 297.302 261.271 294.667 261.271C292.032 261.271 289.896 263.407 289.896 266.042C289.896 268.677 292.032 270.813 294.667 270.813Z" stroke="white" stroke-width="2" stroke-linecap="round" stroke-linejoin="round"/>
<path d="M313.75 175.396C316.385 175.396 318.521 173.26 318.521 170.625C318.521 167.99 316.385 165.854 313.75 165.854C311.115 165.854 308.979 167.99 308.979 170.625C308.979 173.26 311.115 175.396 313.75 175.396Z" stroke="white" stroke-width="2" stroke-linecap="round" stroke-linejoin="round"/>
<path d="M332.833 347.146C335.468 347.146 337.604 345.01 337.604 342.375C337.604 339.74 335.468 337.604 332.833 337.604C330.198 337.604 328.062 339.74 328.062 342.375C328.062 345.01 330.198 347.146 332.833 347.146Z" stroke="white" stroke-width="2" stroke-linecap="round" stroke-linejoin="round"/>
<path d="M332.833 223.104C335.468 223.104 337.604 220.968 337.604 218.333C337.604 215.698 335.468 213.562 332.833 213.562C330.198 213.562 328.062 215.698 328.062 218.333C328.062 220.968 330.198 223.104 332.833 223.104Z" stroke="white" stroke-width="2" stroke-linecap="round" stroke-linejoin="round"/>
<circle cx="313.5" cy="170.5" r="4.5" fill="white"/>
<circle cx="332.5" cy="218.5" r="4.5" fill="white"/>
<circle cx="294.5" cy="266.5" r="4.5" fill="white"/>
<circle cx="333.5" cy="342.5" r="4.5" fill="white"/>
</svg>
